<svg xmlns="http://www.w3.org/2000/svg" width="506" height="506" viewBox="0 0 506 506" version="1.1"><path d="M 250 125.931 C 227.621 130.955, 201.891 144.466, 184.343 160.407 C 178.298 165.898, 176 167.125, 176 164.861 C 176 162.752, 164.904 149.965, 158.515 144.709 C 149.605 137.381, 142.350 133.227, 132.577 129.859 C 118.407 124.974, 98.667 124.728, 91.809 129.350 C 81.282 136.444, 81.336 149.593, 91.922 156.726 C 96.416 159.755, 102.019 159.659, 110.631 156.404 C 122.952 151.747, 136.935 153.030, 151.403 160.147 C 157.534 163.162, 171 171.767, 171 172.670 C 171 172.953, 168.483 175.956, 165.407 179.343 C 158.520 186.924, 147.168 203.720, 142.052 213.898 C 126.077 245.680, 124.709 277.657, 138.440 298.344 C 142.378 304.276, 151.858 312.608, 155.861 313.655 C 157.941 314.199, 167.798 304.698, 238.611 233.889 C 282.825 189.677, 319 152.932, 319 152.232 C 319 147.642, 306.545 134.571, 298.346 130.556 C 288.921 125.941, 284.101 124.862, 271 124.432 C 261.192 124.111, 256.669 124.434, 250 125.931 M 243.247 238.253 C 202.411 279.091, 169 312.990, 169 313.582 C 169 314.174, 171.520 317.443, 174.599 320.846 C 198.419 347.168, 246.877 370.796, 289.692 376.964 C 293.647 377.534, 302.872 377.990, 310.192 377.978 C 326.687 377.952, 338.145 375.625, 349.511 369.995 C 353.946 367.798, 358.135 366, 358.821 366 C 359.506 366, 362.287 367.125, 365 368.500 C 367.713 369.875, 371.298 371, 372.967 371 C 375.611 371, 375.999 370.648, 375.990 368.250 C 375.985 366.738, 374.860 363.093, 373.490 360.151 C 372.121 357.209, 371 354.300, 371 353.688 C 371 353.076, 372.792 348.958, 374.981 344.537 C 381.144 332.095, 383.297 320.125, 382.721 301.500 C 382.466 293.250, 381.487 282.258, 380.545 277.073 C 375.122 247.221, 360.275 212.473, 342.825 188.794 C 336.192 179.794, 320.882 164, 318.790 164 C 318.078 164, 284.084 197.414, 243.247 238.253 M 218.056 328.433 C 216.087 330.805, 220.014 333.660, 235.377 341.024 C 262.536 354.043, 284.569 359.928, 309 360.688 C 330.367 361.353, 341.799 358.371, 336.852 353.423 C 335.432 352.004, 334.529 351.961, 329.369 353.069 C 321.269 354.809, 302.355 354.572, 291.264 352.592 C 273.001 349.332, 252.768 342.401, 233.730 332.884 C 227.257 329.648, 221.349 327, 220.603 327 C 219.856 327, 218.710 327.645, 218.056 328.433" stroke="none" fill="#dc5c44" fill-rule="evenodd"/><path d="M 229 0.620 C 166.414 8.087, 116.015 31.934, 73.974 73.974 C 35.272 112.677, 11.534 159.558, 2.313 215.500 C -0.281 231.235, -0.281 274.765, 2.313 290.500 C 11.534 346.442, 35.272 393.323, 73.974 432.026 C 112.677 470.728, 159.558 494.466, 215.500 503.687 C 224.166 505.115, 232.122 505.500, 253 505.500 C 273.878 505.500, 281.834 505.115, 290.500 503.687 C 346.442 494.466, 393.323 470.728, 432.026 432.026 C 470.126 393.925, 494.370 346.647, 503.033 293.555 C 504.115 286.925, 505 279.839, 505 277.809 C 505 275.779, 505.450 273.840, 506 273.500 C 506.615 273.120, 507 264.803, 507 251.882 C 507 238.137, 506.655 231.095, 506 231.500 C 505.400 231.871, 505 230.594, 505 228.309 C 504.999 222.330, 501.357 201.517, 498.110 188.945 C 482.813 129.707, 444.950 76.478, 394 42.584 C 362.985 21.952, 331.018 9.309, 293.555 2.858 C 284.086 1.228, 276.244 0.720, 257 0.493 C 243.525 0.333, 230.925 0.390, 229 0.620 M 250 125.931 C 227.621 130.955, 201.891 144.466, 184.343 160.407 C 178.298 165.898, 176 167.125, 176 164.861 C 176 162.752, 164.904 149.965, 158.515 144.709 C 149.605 137.381, 142.350 133.227, 132.577 129.859 C 118.407 124.974, 98.667 124.728, 91.809 129.350 C 81.282 136.444, 81.336 149.593, 91.922 156.726 C 96.416 159.755, 102.019 159.659, 110.631 156.404 C 122.952 151.747, 136.935 153.030, 151.403 160.147 C 157.534 163.162, 171 171.767, 171 172.670 C 171 172.953, 168.483 175.956, 165.407 179.343 C 158.520 186.924, 147.168 203.720, 142.052 213.898 C 126.077 245.680, 124.709 277.657, 138.440 298.344 C 142.378 304.276, 151.858 312.608, 155.861 313.655 C 157.941 314.199, 167.798 304.698, 238.611 233.889 C 282.825 189.677, 319 152.932, 319 152.232 C 319 147.642, 306.545 134.571, 298.346 130.556 C 288.921 125.941, 284.101 124.862, 271 124.432 C 261.192 124.111, 256.669 124.434, 250 125.931 M 243.247 238.253 C 202.411 279.091, 169 312.990, 169 313.582 C 169 314.174, 171.520 317.443, 174.599 320.846 C 198.419 347.168, 246.877 370.796, 289.692 376.964 C 293.647 377.534, 302.872 377.990, 310.192 377.978 C 326.687 377.952, 338.145 375.625, 349.511 369.995 C 353.946 367.798, 358.135 366, 358.821 366 C 359.506 366, 362.287 367.125, 365 368.500 C 367.713 369.875, 371.298 371, 372.967 371 C 375.611 371, 375.999 370.648, 375.990 368.250 C 375.985 366.738, 374.860 363.093, 373.490 360.151 C 372.121 357.209, 371 354.300, 371 353.688 C 371 353.076, 372.792 348.958, 374.981 344.537 C 381.144 332.095, 383.297 320.125, 382.721 301.500 C 382.466 293.250, 381.487 282.258, 380.545 277.073 C 375.122 247.221, 360.275 212.473, 342.825 188.794 C 336.192 179.794, 320.882 164, 318.790 164 C 318.078 164, 284.084 197.414, 243.247 238.253 M 0.425 253 C 0.425 264.825, 0.569 269.663, 0.746 263.750 C 0.923 257.837, 0.923 248.162, 0.746 242.250 C 0.569 236.338, 0.425 241.175, 0.425 253 M 218.056 328.433 C 216.087 330.805, 220.014 333.660, 235.377 341.024 C 262.536 354.043, 284.569 359.928, 309 360.688 C 330.367 361.353, 341.799 358.371, 336.852 353.423 C 335.432 352.004, 334.529 351.961, 329.369 353.069 C 321.269 354.809, 302.355 354.572, 291.264 352.592 C 273.001 349.332, 252.768 342.401, 233.730 332.884 C 227.257 329.648, 221.349 327, 220.603 327 C 219.856 327, 218.710 327.645, 218.056 328.433" stroke="none" fill="#f3dbbc" fill-rule="evenodd"/></svg>