<?xml version="1.0" encoding="utf-8"?>
<!DOCTYPE svg PUBLIC "-//W3C//DTD SVG 20010904//EN" "http://www.w3.org/TR/2001/REC-SVG-20010904/DTD/svg10.dtd">
<svg version="1.0" xmlns="http://www.w3.org/2000/svg" width="84pt" height="85pt" viewBox="0 0 84 85" style="" preserveAspectRatio="xMidYMid meet">
<g fill="#E2AA6FFF" stroke="#E2AA6FFF">
<path d="M 53.902 26.893 C 53.024 27.777 51.224 29.260 49.902 30.188 C 48.581 31.116 42.403 35.616 36.172 40.188 C 29.942 44.760 24.025 48.925 23.023 49.444 C 21.372 50.299 21.637 50.928 25.851 56.171 C 28.924 59.993 29.313 60.715 27.000 58.299 C 25.075 56.289 22.713 53.824 21.750 52.822 C 20.788 51.820 18.988 51.052 17.750 51.116 C 15.719 51.221 15.695 51.278 17.500 51.709 C 18.600 51.971 23.325 56.206 28.000 61.120 C 34.991 68.469 37.343 70.299 41.248 71.429 C 43.860 72.185 45.746 72.397 45.439 71.902 C 45.133 71.406 45.359 71.000 45.941 71.000 C 46.523 71.000 47.000 71.450 47.000 72.000 C 47.000 72.550 48.913 72.993 51.250 72.985 C 54.532 72.973 55.158 72.727 54.000 71.904 C 52.852 71.088 53.164 70.984 55.334 71.459 C 57.177 71.863 57.943 71.717 57.525 71.040 C 57.171 70.468 57.610 70.000 58.500 70.000 C 59.390 70.000 59.893 70.364 59.618 70.809 C 59.343 71.255 60.979 71.367 63.254 71.059 C 66.363 70.639 67.478 70.003 67.743 68.500 C 68.027 66.886 67.966 66.838 67.431 68.250 C 67.020 69.333 65.763 69.976 64.133 69.937 C 61.617 69.876 61.597 69.834 63.685 68.993 C 64.886 68.509 66.371 67.175 66.985 66.028 C 67.598 64.882 68.475 64.176 68.933 64.458 C 69.391 64.741 70.772 62.633 72.003 59.772 C 73.842 55.498 74.128 53.501 73.612 48.563 C 73.224 44.852 72.339 41.972 71.297 41.028 C 69.778 39.653 69.726 39.657 70.774 41.066 C 73.013 44.075 73.425 53.598 71.531 58.557 C 70.573 61.068 69.606 62.940 69.384 62.717 C 69.162 62.495 69.723 60.309 70.630 57.859 C 73.169 51.010 71.889 43.432 67.253 37.862 C 63.803 33.718 63.781 33.647 66.811 36.437 C 68.565 38.052 70.000 38.928 70.000 38.383 C 70.000 37.838 68.357 35.842 66.350 33.946 C 64.342 32.051 63.057 31.175 63.494 32.000 C 63.931 32.825 62.311 31.652 59.894 29.393 C 55.861 25.623 55.369 25.417 53.902 26.893 M 35.000 66.463 C 35.000 67.003 33.988 66.396 32.750 65.114 L 30.500 62.783 32.750 64.132 C 33.988 64.874 35.000 65.923 35.000 66.463 "/></g>
<g fill="#D26A2DFF" stroke="#D26A2DFF">
<path d="M 30.079 13.635 C 30.036 14.259 28.811 15.549 27.357 16.502 C 24.900 18.111 24.474 18.120 21.323 16.617 C 17.852 14.962 15.616 14.448 17.615 15.765 C 20.340 17.560 20.013 20.656 16.632 25.072 C 13.081 29.711 8.635 40.656 9.967 41.480 C 10.393 41.743 10.993 43.216 11.301 44.753 C 11.708 46.790 12.779 47.880 15.251 48.774 C 19.845 50.435 21.275 50.324 23.640 48.121 C 24.749 47.087 27.540 45.053 29.841 43.600 C 32.142 42.148 34.806 40.321 35.762 39.541 C 40.494 35.680 52.429 27.000 53.007 27.000 C 53.368 27.000 54.169 25.356 54.786 23.347 C 56.067 19.171 55.110 16.487 51.987 15.496 C 50.878 15.144 50.161 14.551 50.393 14.178 C 50.625 13.805 46.355 13.725 40.905 14.000 C 34.762 14.310 30.837 14.120 30.577 13.500 C 30.337 12.928 30.124 12.985 30.079 13.635 M 17.000 30.000 C 17.000 30.550 16.550 31.000 16.000 31.000 C 15.450 31.000 15.000 30.550 15.000 30.000 C 15.000 29.450 15.450 29.000 16.000 29.000 C 16.550 29.000 17.000 29.450 17.000 30.000 "/></g>
<g fill="#D26A2DFF" stroke="#D26A2DFF">
<path d="M 67.350 37.862 C 71.708 43.242 73.022 50.690 70.880 57.872 L 69.500 62.500 71.250 58.782 C 74.569 51.731 73.216 43.541 67.773 37.727 L 63.816 33.500 67.350 37.862 "/></g>
<g fill="#E2AA6FFF" stroke="#E2AA6FFF">
<path d="M 54.400 15.100 C 56.579 16.814 57.027 17.915 56.840 21.092 C 56.656 24.197 57.191 25.590 59.482 27.981 C 61.062 29.630 62.579 30.754 62.854 30.479 C 63.129 30.204 62.044 28.612 60.443 26.940 C 58.273 24.676 57.613 23.126 57.851 20.856 C 58.165 17.864 54.970 13.000 52.691 13.000 C 52.163 13.000 52.932 13.945 54.400 15.100 "/></g>
<g fill="#D26A2DFF" stroke="#D26A2DFF">
<path d="M 21.750 52.822 C 22.713 53.824 25.075 56.295 27.000 58.313 C 29.797 61.245 29.629 60.879 26.165 56.491 C 23.781 53.471 21.419 51.000 20.915 51.000 C 20.412 51.000 20.788 51.820 21.750 52.822 "/></g>
<g fill="#E2AA6FFF" stroke="#E2AA6FFF">
<path d="M 12.254 27.035 C 11.018 28.941 9.938 31.063 9.854 31.750 C 9.769 32.438 9.655 33.469 9.600 34.043 C 9.545 34.617 10.625 32.495 12.000 29.328 C 14.340 23.939 14.356 23.792 12.254 27.035 "/></g>
<g fill="#BE734CFF" stroke="#BE734CFF">
<path d="M 16.000 12.784 C 16.000 13.216 17.463 14.411 19.250 15.441 L 22.500 17.313 20.076 14.656 C 17.681 12.032 16.000 11.260 16.000 12.784 "/></g>
<g fill="#D26A2DFF" stroke="#D26A2DFF">
<path d="M 67.185 65.971 C 66.461 67.149 64.886 68.509 63.685 68.993 L 61.500 69.873 63.774 69.937 C 65.412 69.982 66.391 69.137 67.274 66.914 C 68.319 64.284 68.306 64.145 67.185 65.971 "/></g>
<g fill="#D26A2DFF" stroke="#D26A2DFF">
<path d="M 56.000 24.819 C 56.000 25.245 57.895 27.373 60.211 29.547 L 64.422 33.500 60.211 28.772 C 57.895 26.172 56.000 24.393 56.000 24.819 "/></g>
<g fill="#E2AA6FFF" stroke="#E2AA6FFF">
<path d="M 21.695 14.976 C 23.627 17.052 24.094 17.165 25.580 15.918 C 27.129 14.617 27.087 14.527 25.074 14.823 C 23.868 15.001 22.120 14.577 21.190 13.881 C 20.261 13.186 20.488 13.678 21.695 14.976 "/></g>
<g fill="#BE734CFF" stroke="#BE734CFF">
<path d="M 12.481 48.543 C 13.570 49.376 15.145 49.915 15.981 49.741 C 16.816 49.566 15.925 48.884 14.000 48.225 C 10.796 47.129 10.667 47.155 12.481 48.543 "/></g>
<g fill="#BE734CFF" stroke="#BE734CFF">
<path d="M 51.500 15.155 C 52.600 15.756 54.063 16.954 54.750 17.815 C 55.438 18.677 56.000 18.872 56.000 18.248 C 56.000 16.977 52.115 13.983 50.527 14.030 C 49.962 14.047 50.400 14.553 51.500 15.155 "/></g>
<g fill="#E2AA6FFF" stroke="#E2AA6FFF">
<path d="M 14.000 14.743 C 14.000 15.300 14.675 16.315 15.500 17.000 C 16.325 17.685 17.036 18.977 17.079 19.872 C 17.128 20.894 17.345 21.038 17.659 20.260 C 17.935 19.577 17.224 17.829 16.080 16.375 C 14.936 14.920 14.000 14.186 14.000 14.743 "/></g>
<g fill="#E2AA6FFF" stroke="#E2AA6FFF">
<path d="M 29.000 13.037 C 27.874 13.792 28.217 13.924 30.373 13.566 C 31.953 13.303 33.490 12.843 33.789 12.544 C 34.765 11.568 30.541 12.003 29.000 13.037 "/></g>
<g fill="#E2AA6FFF" stroke="#E2AA6FFF">
<path d="M 40.000 12.000 C 40.000 12.550 40.927 13.000 42.059 13.000 C 43.191 13.000 43.840 12.550 43.500 12.000 C 43.160 11.450 42.234 11.000 41.441 11.000 C 40.648 11.000 40.000 11.450 40.000 12.000 "/></g>
<g fill="#CF997EFF" stroke="#CF997EFF">
<path d="M 54.800 16.385 C 56.010 17.972 57.000 18.829 57.000 18.290 C 57.000 17.751 56.010 16.453 54.800 15.405 L 52.600 13.500 54.800 16.385 "/></g>
<g fill="#BE734CFF" stroke="#BE734CFF">
<path d="M 54.951 23.500 C 54.734 25.550 54.879 25.956 55.411 24.783 C 55.839 23.839 55.982 22.489 55.728 21.783 C 55.475 21.077 55.125 21.850 54.951 23.500 "/></g>
<g fill="#BE734CFF" stroke="#BE734CFF">
<path d="M 25.000 16.718 C 23.283 17.578 23.028 17.975 24.185 17.985 C 25.111 17.993 26.236 17.430 26.685 16.732 C 27.342 15.711 27.014 15.708 25.000 16.718 "/></g>
<g fill="#D26A2DFF" stroke="#D26A2DFF">
<path d="M 32.750 65.114 C 33.988 66.396 35.000 67.003 35.000 66.463 C 35.000 65.923 33.988 64.874 32.750 64.132 L 30.500 62.783 32.750 65.114 "/></g>
<g fill="#E2AA6FFF" stroke="#E2AA6FFF">
<path d="M 10.856 49.306 C 11.602 50.216 12.905 51.082 13.751 51.231 C 14.598 51.379 13.987 50.634 12.395 49.575 C 10.135 48.073 9.797 48.014 10.856 49.306 "/></g>
<g fill="#BE734CFF" stroke="#BE734CFF">
<path d="M 16.000 24.888 L 14.500 26.563 16.000 24.888 L 17.500 23.212 16.000 24.888 "/></g>
<g fill="#B6775BFF" stroke="#B6775BFF">
<path d="M 16.378 23.378 L 15.500 24.256 16.378 23.378 L 17.256 22.500 16.378 23.378 "/></g>
<g fill="#BE734CFF" stroke="#BE734CFF">
<path d="M 29.000 44.047 C 28.010 44.656 27.925 44.975 28.750 44.985 C 29.438 44.993 30.113 44.578 30.250 44.062 C 30.404 43.485 29.924 43.479 29.000 44.047 "/></g>
<g fill="#BE734CFF" stroke="#BE734CFF">
<path d="M 12.750 28.666 C 12.338 29.033 12.030 29.821 12.066 30.417 C 12.102 31.013 12.439 30.712 12.816 29.750 C 13.192 28.787 13.163 28.300 12.750 28.666 "/></g>
<g fill="#BE734CFF" stroke="#BE734CFF">
<path d="M 17.500 16.500 L 19.000 18.000 17.500 16.500 L 16.000 15.000 17.500 16.500 "/></g>
<g fill="#D26A2DFF" stroke="#D26A2DFF">
<path d="M 16.378 22.378 L 15.500 23.256 16.378 22.378 L 17.256 21.500 16.378 22.378 "/></g>
<g fill="#E2AA6FFF" stroke="#E2AA6FFF">
<path d="M 48.800 13.200 C 49.733 14.133 50.000 14.133 50.000 13.200 C 50.000 12.540 49.460 12.000 48.800 12.000 C 47.867 12.000 47.867 12.267 48.800 13.200 "/></g>
</svg>
